<?xml version="1.0" standalone="no"?><!DOCTYPE svg PUBLIC "-//W3C//DTD SVG 1.1//EN" "http://www.w3.org/Graphics/SVG/1.1/DTD/svg11.dtd"><svg t="1607060097331" class="icon" viewBox="0 0 1024 1024" version="1.1" xmlns="http://www.w3.org/2000/svg" p-id="7611" xmlns:xlink="http://www.w3.org/1999/xlink" width="200" height="200"><defs><style type="text/css"></style></defs><path d="M597.333333 597.333333v-21.333333a85.333333 85.333333 0 1 0-170.666666 0v21.333333H192v-192a42.666667 42.666667 0 0 1 42.666667-42.666666h106.666666v-85.333334a42.666667 42.666667 0 0 1 42.666667-42.666666h256a42.666667 42.666667 0 0 1 42.666667 42.666666v85.333334h106.666666a42.666667 42.666667 0 0 1 42.666667 42.666666v192H597.333333z m-167.978666 42.666667a85.376 85.376 0 0 0 165.290666 0H832v149.333333a42.666667 42.666667 0 0 1-42.666667 42.666667H234.666667a42.666667 42.666667 0 0 1-42.666667-42.666667v-149.333333h237.354667zM618.666667 362.666667v-42.666667a21.333333 21.333333 0 0 0-21.333334-21.333333h-170.666666a21.333333 21.333333 0 0 0-21.333334 21.333333v42.666667h213.333334z m-106.666667 170.666666a42.666667 42.666667 0 0 1 42.666667 42.666667v42.666667a42.666667 42.666667 0 1 1-85.333334 0v-42.666667a42.666667 42.666667 0 0 1 42.666667-42.666667z" fill="#00C48C" p-id="7612"></path></svg>